HIERARCHY
ROOT joint_0
{
	OFFSET 0.000000 0.000000 0.000000
	CHANNELS 6 Xposition Yposition Zposition Zrotation Yrotation Xrotation 
	JOINT joint_1
	{
		OFFSET 11.612000 -0.419000 106.198000
		CHANNELS 3 Zrotation Yrotation Xrotation
		JOINT joint_2
		{
			OFFSET -1.708000 -1.022000 97.564090
			CHANNELS 3 Zrotation Yrotation Xrotation
			JOINT joint_3
			{
				OFFSET -4.121000 -1.538000 97.375000
				CHANNELS 3 Zrotation Yrotation Xrotation
				JOINT joint_4
				{
					OFFSET 5.442000 -2.123000 132.795900
					CHANNELS 3 Zrotation Yrotation Xrotation
					JOINT joint_5
					{
						OFFSET 21.935000 0.195000 82.975100
						CHANNELS 3 Zrotation Yrotation Xrotation
						End Site
						{
							OFFSET 0.000000 0.000000 0.000000
						}
					}
				}
				JOINT joint_6
				{
					OFFSET 4.262000 -30.048000 73.899900
					CHANNELS 3 Zrotation Yrotation Xrotation
					JOINT joint_7
					{
						OFFSET 9.731000 -136.810010 -21.963010
						CHANNELS 3 Zrotation Yrotation Xrotation
						JOINT joint_8
						{
							OFFSET 33.360000 -35.709000 -267.597900
							CHANNELS 3 Zrotation Yrotation Xrotation
							JOINT joint_9
							{
								OFFSET 36.156000 -29.759000 -240.558040
								CHANNELS 3 Zrotation Yrotation Xrotation
								End Site
								{
									OFFSET 0.000000 0.000000 0.000000
								}
							}
						}
					}
				}
				JOINT joint_10
				{
					OFFSET 2.027000 27.734000 74.914920
					CHANNELS 3 Zrotation Yrotation Xrotation
					JOINT joint_11
					{
						OFFSET -5.183000 136.784000 -23.604980
						CHANNELS 3 Zrotation Yrotation Xrotation
						JOINT joint_12
						{
							OFFSET 29.806000 37.229000 -267.809940
							CHANNELS 3 Zrotation Yrotation Xrotation
							JOINT joint_13
							{
								OFFSET 36.890000 46.524990 -237.772030
								CHANNELS 3 Zrotation Yrotation Xrotation
								End Site
								{
									OFFSET 0.000000 0.000000 0.000000
								}
							}
						}
					}
				}
			}
		}
	}
	JOINT joint_14
	{
		OFFSET -7.290000 -102.873990 -124.314940
		CHANNELS 3 Zrotation Yrotation Xrotation
		JOINT joint_15
		{
			OFFSET -15.466000 -19.909010 -438.533020
			CHANNELS 3 Zrotation Yrotation Xrotation
			JOINT joint_16
			{
				OFFSET -26.899000 -18.922000 -464.797000
				CHANNELS 3 Zrotation Yrotation Xrotation
				JOINT joint_17
				{
					OFFSET 179.329000 -12.011000 -84.174000
					CHANNELS 3 Zrotation Yrotation Xrotation
					End Site
					{
						OFFSET 0.000000 0.000000 0.000000
					}
				}
			}
		}
	}
	JOINT joint_18
	{
		OFFSET -6.225000 101.546000 -125.479980
		CHANNELS 3 Zrotation Yrotation Xrotation
		JOINT joint_19
		{
			OFFSET -13.973000 7.996000 -438.963010
			CHANNELS 3 Zrotation Yrotation Xrotation
			JOINT joint_20
			{
				OFFSET -44.294000 5.716000 -463.813970
				CHANNELS 3 Zrotation Yrotation Xrotation
				JOINT joint_21
				{
					OFFSET 178.505000 -4.689000 -85.139000
					CHANNELS 3 Zrotation Yrotation Xrotation
					End Site
					{
						OFFSET 0.000000 0.000000 0.000000
					}
				}
			}
		}
	}
}
MOTION
Frames: 9
Frame Time: 0.016667
-3467.126221 872.450073 1127.113037 7.571595 -4.798296 0.004912 -1.167623 8.966217 0.531442 -1.199550 -1.801351 -0.140770 -1.137867 1.727191 0.047314 0.049036 -0.368806 -0.177658 0.000000 0.000000 0.000000 -1.073910 0.392223 1.270655 -0.235825 0.100192 -0.975504 1.810874 -9.640841 4.958618 0.000000 0.000000 0.000000 -0.606541 -0.149363 -0.118361 -0.751803 -0.134762 0.721782 -2.736595 -7.797103 -7.544949 0.000000 0.000000 0.000000 -1.679605 2.274651 0.774240 -1.571075 1.202040 -1.114631 -1.526466 -0.345269 -0.735896 0.000000 0.000000 0.000000 3.896698 1.438556 2.167480 3.918434 -0.819255 0.475082 3.847942 3.368453 1.912299 0.000000 0.000000 0.000000 
-3466.216309 872.728821 1127.311035 7.558089 -4.703798 -0.005238 -1.183007 9.127435 0.577386 -1.210277 -1.789822 -0.151293 -1.147926 1.713336 0.054936 0.051314 -0.531404 -0.183684 0.000000 0.000000 0.000000 -1.111509 0.844422 1.191745 -0.361839 0.576943 -0.905971 2.150028 -11.924376 5.791728 0.000000 0.000000 0.000000 -0.552290 0.217054 -0.208348 -0.792441 0.223653 0.743489 -3.054787 -9.188571 -7.867608 0.000000 0.000000 0.000000 -1.767718 2.216104 0.749712 -1.664560 1.231219 -1.091717 -1.607766 -0.513608 -0.785212 0.000000 0.000000 0.000000 3.962924 1.361568 2.199174 3.989261 -0.756362 0.443948 3.910183 3.256015 1.939079 0.000000 0.000000 0.000000 
-3465.177002 872.998352 1127.511963 7.548636 -4.579448 -0.017695 -1.200176 9.306251 0.658773 -1.222751 -1.791769 -0.179882 -1.158040 1.709781 0.074744 0.056442 -0.745474 -0.199631 0.000000 0.000000 0.000000 -1.277951 1.529901 0.777080 -0.571437 1.318207 -0.618838 2.710997 -16.231779 6.906802 0.000000 0.000000 0.000000 -0.402624 0.838402 -0.071455 -0.911303 0.807462 0.783050 -3.767918 -12.211027 -8.787128 0.000000 0.000000 0.000000 -1.852941 2.118445 0.718498 -1.759961 1.313890 -1.057143 -1.681133 -0.837264 -0.841232 0.000000 0.000000 0.000000 4.016934 1.245957 2.240503 4.049510 -0.650918 0.413695 3.960667 3.035363 1.957302 0.000000 0.000000 0.000000 
-3464.242920 873.192810 1127.631958 7.555372 -4.421438 -0.030483 -1.219586 9.477769 0.813438 -1.239159 -1.836321 -0.237643 -1.168926 1.748731 0.112841 0.071766 -1.037385 -0.253050 0.000000 0.000000 0.000000 -1.628312 2.610273 0.124593 -0.962169 2.467055 -0.335692 3.620371 -24.148959 8.365481 0.000000 0.000000 0.000000 -0.102251 1.832345 0.161996 -1.077975 1.767865 1.263212 -5.110494 -18.061665 -10.817370 0.000000 0.000000 0.000000 -1.908490 1.957894 0.682163 -1.832593 1.477818 -1.017485 -1.718959 -1.376963 -0.895094 0.000000 0.000000 0.000000 4.029030 1.063449 2.290768 4.070124 -0.476847 0.386485 3.971128 2.666338 1.952369 0.000000 0.000000 0.000000 
-3463.380127 873.351257 1127.703003 7.573469 -4.236142 -0.044461 -1.239521 9.663337 1.030241 -1.256912 -1.928477 -0.309783 -1.179194 1.833919 0.159963 0.099085 -1.410014 -0.352244 0.000000 0.000000 0.000000 -2.104077 4.002563 -0.136812 -1.508114 3.843307 -0.667527 4.749004 -34.938245 10.073114 0.000000 0.000000 0.000000 0.297173 3.050700 0.049031 -1.111674 3.049994 2.521464 -6.761486 -26.218153 -13.555129 0.000000 0.000000 0.000000 -1.948126 1.746802 0.639975 -1.894869 1.707152 -0.974029 -1.735857 -2.092435 -0.950904 0.000000 0.000000 0.000000 4.013991 0.823499 2.349851 4.065889 -0.240285 0.360829 3.956211 2.178408 1.932112 0.000000 0.000000 0.000000 
-3461.826660 873.459045 1127.848999 7.586201 -4.001120 -0.060351 -1.259284 9.866156 1.220739 -1.272286 -2.019257 -0.365178 -1.188563 1.916139 0.195495 0.124320 -1.833117 -0.444269 0.000000 0.000000 0.000000 -2.669983 5.295909 -0.347083 -1.966563 5.020772 -1.367755 5.818981 -45.904852 11.807946 0.000000 0.000000 0.000000 0.666994 4.296982 0.066179 -1.011881 4.435381 3.773590 -8.242017 -35.473698 -15.840201 0.000000 0.000000 0.000000 -1.985083 1.506646 0.589712 -1.959875 1.992356 -0.889895 -1.742207 -2.999001 -1.014587 0.000000 0.000000 0.000000 3.990836 0.589333 2.422608 4.054156 -0.014670 0.337508 3.933568 1.541574 1.904276 0.000000 0.000000 0.000000 
-3459.239014 873.510803 1128.191040 7.587766 -3.711775 -0.083013 -1.277295 10.108023 1.319305 -1.280977 -2.064062 -0.384456 -1.194816 1.948071 0.209785 0.135638 -2.267839 -0.481376 0.000000 0.000000 0.000000 -3.320040 6.381251 -1.073069 -2.310138 5.942326 -2.025556 6.733093 -56.383179 13.485391 0.000000 0.000000 0.000000 0.932556 5.603297 0.668643 -0.928293 5.880113 4.450051 -9.466656 -45.727973 -17.091655 0.000000 0.000000 0.000000 -2.024406 1.242735 0.520056 -2.035547 2.358314 -0.717693 -1.739418 -4.151012 -1.090452 0.000000 0.000000 0.000000 3.968063 0.395210 2.516542 4.042894 0.170879 0.320331 3.911141 0.722347 1.871798 0.000000 0.000000 0.000000 
-3455.910645 873.511108 1128.685059 7.584332 -3.376707 -0.111809 -1.292979 10.385859 1.357895 -1.283216 -2.080919 -0.385355 -1.196298 1.950660 0.212312 0.134482 -2.723727 -0.463631 0.000000 0.000000 0.000000 -4.108143 7.329199 -2.019967 -2.676305 6.640008 -2.888958 7.513060 -67.297300 15.025318 0.000000 0.000000 0.000000 1.171017 6.997574 1.448144 -0.926311 7.366532 5.028316 -10.512853 -57.215141 -17.569049 0.000000 0.000000 0.000000 -2.059720 0.946857 0.430983 -2.115538 2.807242 -0.471027 -1.722411 -5.533371 -1.175086 0.000000 0.000000 0.000000 3.939640 0.216970 2.629840 4.026814 0.343108 0.308253 3.883469 -0.260975 1.832555 0.000000 0.000000 0.000000 
-3451.115967 873.441284 1129.135986 7.554844 -2.945571 -0.123953 -1.317174 10.598923 1.355651 -1.292091 -2.088239 -0.377523 -1.204739 1.948143 0.208489 0.123477 -3.299065 -0.397872 0.000000 0.000000 0.000000 -4.857785 7.897828 -2.839312 -3.140167 6.945114 -3.948062 8.088382 -77.147520 16.564303 0.000000 0.000000 0.000000 1.325636 8.330883 2.179525 -1.042269 8.623087 5.465201 -11.261791 -68.201709 -17.042462 0.000000 0.000000 0.000000 -2.101235 0.653315 0.365469 -2.197098 3.200711 -0.256889 -1.710427 -6.936264 -1.263569 0.000000 0.000000 0.000000 3.923588 0.083736 2.734244 4.019982 0.412668 0.295818 3.864774 -1.339598 1.795261 0.000000 0.000000 0.000000 
